<svg version="1.1" id="Layer_1" xmlns="http://www.w3.org/2000/svg" xmlns:xlink="http://www.w3.org/1999/xlink" x="0px" y="0px"
	 width="100%" viewBox="0 0 300 300" enable-background="new 0 0 300 300" xml:space="preserve">
<path fill="#000000" opacity="1.000000" stroke="none" 
	d="
M176.000000,301.000000 
	C117.333344,301.000000 59.166687,301.000000 1.000023,301.000000 
	C1.000016,201.000031 1.000016,101.000053 1.000008,1.000064 
	C100.999947,1.000042 200.999893,1.000042 300.999878,1.000021 
	C300.999939,100.999939 300.999939,200.999878 300.999969,300.999908 
	C259.500000,301.000000 218.000000,301.000000 176.000000,301.000000 
M197.939377,34.574028 
	C198.282166,34.681461 198.624969,34.788895 199.902603,35.014507 
	C209.278534,34.963261 218.654480,34.912014 228.492844,34.938148 
	C228.492844,34.938148 228.954041,34.853584 229.773697,35.001087 
	C231.043152,35.314217 232.299103,35.822124 233.584106,35.911289 
	C253.316879,37.280540 268.646423,56.209370 268.029877,76.058342 
	C267.657867,88.035011 268.068512,100.035995 268.061218,112.479370 
	C268.061218,112.479370 268.197418,112.916794 268.553436,113.603333 
	C270.977112,113.391296 273.400787,113.179260 275.936584,112.505547 
	C275.936584,112.505547 275.860565,112.036575 275.994781,111.103065 
	C275.956665,95.727386 275.918518,80.351707 275.936707,64.508156 
	C275.936707,64.508156 275.793671,64.059143 275.869537,63.277447 
	C274.060333,55.178860 270.922546,47.762932 265.190216,41.563251 
	C257.776306,33.544903 248.685593,28.823519 237.493469,27.070261 
	C237.493469,27.070261 237.039413,27.128912 236.106674,26.985922 
	C223.730530,27.021866 211.354385,27.057808 198.334091,27.134893 
	C198.157990,27.490772 197.981888,27.846649 197.617676,28.901144 
	C197.732376,30.089413 197.847092,31.277681 197.732513,32.852131 
	C197.704391,32.996788 197.625397,33.154591 197.658676,33.283394 
	C197.729218,33.556351 197.858307,33.814182 197.942139,33.991863 
	C197.942139,33.991863 197.855789,34.013157 197.939377,34.574028 
M275.910553,205.458679 
	C275.615509,205.334351 275.320465,205.210007 274.165710,204.972183 
	C272.434784,205.020523 270.703827,205.068863 268.478699,205.121567 
	C268.130524,205.304733 268.010651,205.585419 267.985077,206.897125 
	C267.972839,216.227921 267.952637,225.558731 267.949890,234.889526 
	C267.943207,257.558075 250.604721,274.925079 227.972153,274.958984 
	C218.310410,274.973480 208.648788,275.053223 198.283798,275.210846 
	C198.197266,277.800781 198.110748,280.390686 198.469345,283.719696 
	C211.882950,283.501465 225.346741,283.935760 238.698151,282.908936 
	C257.746643,281.443970 273.566406,265.142303 275.956879,245.500412 
	C275.956879,245.500412 275.887573,245.034698 276.023468,244.101608 
	C275.982056,231.393814 275.940643,218.686035 275.910553,205.458679 
M21.369986,205.046555 
	C20.959351,205.360886 20.548717,205.675217 19.990639,206.917999 
	C20.039307,218.955872 20.087975,230.993729 20.066385,243.487457 
	C20.066385,243.487457 20.174187,243.935928 20.163330,244.730438 
	C20.344015,245.191055 20.632870,245.638718 20.689856,246.114166 
	C23.364889,268.432281 43.351536,284.251282 66.358253,283.925781 
	C77.807976,283.763763 89.262138,283.935608 100.713554,283.853638 
	C102.420883,283.841431 104.124146,283.262939 105.980728,282.497223 
	C105.980728,282.497223 105.908417,282.028748 106.027084,281.169861 
	C105.983543,279.438843 105.940010,277.707855 105.893944,275.472168 
	C105.607231,275.351868 105.320518,275.231598 104.099342,274.987854 
	C91.617676,274.976013 79.086395,275.623688 66.674065,274.689972 
	C59.884312,274.179230 52.636227,272.144501 46.756340,268.771942 
	C35.220890,262.155457 29.358486,251.186401 27.950272,237.504196 
	C27.950272,237.504196 27.877613,237.039841 28.021538,236.107162 
	C27.970852,226.062149 27.920166,216.017151 27.860598,205.489731 
	C27.681986,205.151215 27.408091,205.032455 26.202164,204.982590 
	C24.789732,205.031113 23.377302,205.079636 21.369986,205.046555 
M59.511181,27.074112 
	C59.511181,27.074112 59.059055,27.173763 58.268467,27.185833 
	C57.806484,27.375404 57.360317,27.662977 56.880241,27.740475 
	C34.318886,31.382511 21.708874,48.254814 20.192980,68.086540 
	C19.079775,82.650078 20.076088,97.374863 20.080931,112.474594 
	C20.080931,112.474594 20.270828,112.882294 20.750927,113.454071 
	C23.100565,113.274887 25.450203,113.095703 27.940180,112.487831 
	C27.940180,112.487831 27.879845,112.040817 28.024227,111.108078 
	C28.036306,98.968338 27.648920,86.809273 28.234627,74.697273 
	C28.513491,68.930588 29.684097,62.802216 32.118355,57.621185 
	C39.158360,42.637367 51.986862,35.759548 68.115341,35.132656 
	C80.402046,34.655090 92.718430,34.940948 105.526482,34.890270 
	C105.647224,34.603565 105.767967,34.316860 106.018822,33.172928 
	C105.975433,31.442123 105.932037,29.711317 105.890038,27.474630 
	C105.602737,27.353350 105.315445,27.232071 104.095276,26.979927 
	C89.386620,27.033600 74.677963,27.087273 59.511181,27.074112 
M120.331017,168.036346 
	C119.901337,168.066132 119.471664,168.095932 118.108894,167.982941 
	C102.730476,168.029877 87.352051,168.076797 71.509621,168.053787 
	C71.509621,168.053787 71.052109,168.158066 70.287888,168.099533 
	C60.411804,170.525833 52.952705,175.702896 49.519573,186.530304 
	C49.361828,187.686325 49.204079,188.842346 48.895565,190.648224 
	C48.803768,191.735397 48.711971,192.822571 48.388947,194.833374 
	C48.342377,205.614273 48.204300,216.395889 48.288391,227.175766 
	C48.329556,232.451614 48.783798,237.724228 49.036251,243.746262 
	C52.887798,255.007538 60.014004,262.612488 72.493149,263.056122 
	C87.418907,263.586700 102.386589,264.070068 117.299461,263.540802 
	C135.378876,262.899170 144.220947,249.483688 144.031982,233.642181 
	C143.883255,221.173767 144.079544,208.701584 143.982269,196.232162 
	C143.876007,182.608948 136.142181,170.536591 120.331017,168.036346 
M253.800095,193.278961 
	C252.321594,180.510223 245.149353,172.663803 232.500381,169.064529 
	C232.500381,169.064529 232.045013,169.137543 231.111969,168.991455 
	C214.064026,169.038925 197.016068,169.086380 179.515854,169.060059 
	C179.515854,169.060059 179.066833,169.151596 178.342941,169.244476 
	C166.943192,172.828476 158.166779,181.803345 158.811920,196.597382 
	C159.449692,211.222290 158.923462,225.896805 158.961151,240.549408 
	C158.990707,252.036758 169.678497,263.744171 181.097748,263.946930 
	C198.071060,264.248322 215.055588,263.917267 232.465164,263.920593 
	C232.465164,263.920593 232.880447,263.791992 233.601242,263.672455 
	C246.495285,259.946930 252.782700,251.026062 253.962936,237.046692 
	C253.895859,222.721939 253.828781,208.397202 253.800095,193.278961 
M143.949722,78.285683 
	C141.550125,64.882462 130.264191,54.866325 115.039375,55.781456 
	C102.093819,56.559589 89.034424,56.490898 76.080643,55.784245 
	C63.695911,55.108627 50.577892,64.088524 49.056290,78.495865 
	C49.056290,78.495865 49.123623,78.957352 48.976574,79.889954 
	C49.024868,95.936996 49.073162,111.984039 49.054569,128.491516 
	C49.054569,128.491516 49.162849,128.944000 49.076530,129.715256 
	C51.624496,141.161758 58.784721,148.016174 70.673874,150.955719 
	C71.102226,150.928391 71.530586,150.901062 72.892670,151.010803 
	C88.938057,150.964127 104.983444,150.917435 121.722748,150.969391 
	C122.525665,150.658966 123.328583,150.348541 124.893044,150.037979 
	C136.132568,146.899170 141.962479,139.125885 143.918228,127.504227 
	C143.918228,127.504227 143.856064,127.053818 144.015045,126.121498 
	C143.967239,110.736610 143.919434,95.351723 143.938004,79.509193 
	C143.938004,79.509193 143.833038,79.058823 143.949722,78.285683 
M252.953690,77.507660 
	C252.953690,77.507660 252.840530,77.045113 252.705154,76.322784 
	C248.314392,62.394753 239.472015,55.997154 224.606094,55.995777 
	C211.455460,55.994560 198.304825,55.987564 185.154190,55.997749 
	C169.260849,56.010063 158.160248,67.052727 158.124619,82.923477 
	C158.094345,96.406967 158.114319,109.890579 158.118805,123.374138 
	C158.124573,140.740265 169.049408,151.654877 186.468674,151.695572 
	C199.951569,151.727081 213.448013,152.137665 226.913757,151.669632 
	C241.732239,151.154617 251.930008,142.219055 252.779968,128.888763 
	C253.857773,111.985222 252.939987,94.954445 252.953690,77.507660 
z"/>
<path fill="#389276" opacity="1.000000" stroke="none" 
	d="
M252.882782,77.978531 
	C252.939987,94.954445 253.857773,111.985222 252.779968,128.888763 
	C251.930008,142.219055 241.732239,151.154617 226.913757,151.669632 
	C213.448013,152.137665 199.951569,151.727081 186.468674,151.695572 
	C169.049408,151.654877 158.124573,140.740265 158.118805,123.374138 
	C158.114319,109.890579 158.094345,96.406967 158.124619,82.923477 
	C158.160248,67.052727 169.260849,56.010063 185.154190,55.997749 
	C198.304825,55.987564 211.455460,55.994560 224.606094,55.995777 
	C239.472015,55.997154 248.314392,62.394753 252.770416,76.801025 
	C252.831192,77.513283 252.846878,77.746368 252.882782,77.978531 
z"/>
<path fill="#389276" opacity="1.000000" stroke="none" 
	d="
M121.028824,150.870758 
	C104.983444,150.917435 88.938057,150.964127 72.240143,150.871063 
	C71.075523,150.748260 70.563431,150.765213 70.051331,150.782166 
	C58.784721,148.016174 51.624496,141.161758 49.093361,129.217377 
	C49.085873,128.488647 49.089630,128.259171 49.121456,128.031082 
	C49.073162,111.984039 49.024868,95.936996 49.032928,79.309235 
	C49.084522,78.495522 49.108692,78.266541 49.161793,78.041573 
	C50.577892,64.088524 63.695911,55.108627 76.080643,55.784245 
	C89.034424,56.490898 102.093819,56.559589 115.039375,55.781456 
	C130.264191,54.866325 141.550125,64.882462 143.919586,78.783516 
	C143.916046,79.511726 143.910095,79.740219 143.871628,79.966835 
	C143.919434,95.351723 143.967239,110.736610 143.960190,126.698524 
	C143.919601,127.506531 143.890488,127.730576 143.817978,127.947701 
	C141.962479,139.125885 136.132568,146.899170 124.190254,150.073105 
	C122.667923,150.362411 121.848373,150.616577 121.028824,150.870758 
z"/>
<path fill="#389276" opacity="1.000000" stroke="none" 
	d="
M179.968124,169.133850 
	C197.016068,169.086380 214.064026,169.038925 231.692108,169.054199 
	C232.499939,169.116882 232.726212,169.132065 232.951050,169.162491 
	C245.149353,172.663803 252.321594,180.510223 253.652222,194.059814 
	C253.336243,203.944901 253.041641,213.049225 253.048508,222.153351 
	C253.052490,227.426025 253.541763,232.698318 253.812653,237.970795 
	C252.782700,251.026062 246.495285,259.946930 233.137787,263.746033 
	C232.461502,263.837921 232.248505,263.849823 232.035339,263.855408 
	C215.055588,263.917267 198.071060,264.248322 181.097748,263.946930 
	C169.678497,263.744171 158.990707,252.036758 158.961151,240.549408 
	C158.923462,225.896805 159.449692,211.222290 158.811920,196.597382 
	C158.166779,181.803345 166.943192,172.828476 178.816071,169.183090 
	C179.289185,169.121704 179.629181,169.116165 179.629181,169.116165 
	C179.629181,169.116165 179.968124,169.133850 179.968124,169.133850 
M210.001663,213.144180 
	C210.001663,211.213760 210.001663,209.283325 210.001663,207.212646 
	C207.010864,207.212646 204.734009,207.212646 202.479218,207.212646 
	C202.479218,211.806992 202.479218,216.217422 202.479218,221.040985 
	C212.032822,221.040985 221.548492,221.129471 231.060883,220.991516 
	C234.260452,220.945114 236.353821,221.546204 235.869125,225.325577 
	C235.685425,226.757858 235.538406,228.194809 235.314240,230.159332 
	C229.837433,230.159332 224.603622,230.159332 219.286758,230.159332 
	C219.286758,234.649765 219.286758,238.566208 219.286758,242.586044 
	C221.632477,242.586044 223.675034,242.586044 225.684753,242.586044 
	C225.943649,240.624420 226.154678,239.025589 226.392502,237.223618 
	C229.418015,237.223618 232.185593,237.223618 235.135620,237.223618 
	C235.628128,239.157700 236.099182,241.007523 236.501434,242.587143 
	C238.782639,242.587143 240.691223,242.587143 242.927155,242.587143 
	C242.927155,234.099411 242.935837,225.969284 242.913406,217.839249 
	C242.911224,217.044189 242.717407,216.249664 242.586700,215.259262 
	C240.257629,215.141479 238.128815,215.033829 236.001541,214.003693 
	C235.986664,210.740540 236.027832,207.475937 235.942459,204.214630 
	C235.840057,200.301697 234.225586,198.289734 229.114304,199.957947 
	C225.877884,199.957947 222.641449,199.957947 218.874664,199.957947 
	C218.874664,205.158844 218.874664,209.583939 218.209335,214.034424 
	C217.149490,214.312592 216.089645,214.590759 214.227676,215.008911 
	C213.145187,214.971466 212.062698,214.934021 210.712891,214.584869 
	C210.526978,214.383194 210.327103,214.196442 210.001663,213.144180 
M169.292984,215.724121 
	C169.292984,217.330170 169.292984,218.936218 169.292984,220.493210 
	C178.822357,221.934662 178.822357,221.934662 177.198608,229.737564 
	C174.687653,229.907959 172.104782,230.083221 169.354584,230.269836 
	C169.354584,234.601639 169.354584,238.647720 169.354584,242.709442 
	C171.966980,242.709442 174.220352,242.709442 176.349854,242.709442 
	C176.581070,240.702698 176.783127,238.949158 176.984497,237.201492 
	C179.840454,237.013840 182.255310,236.855164 185.144470,236.665314 
	C185.144470,231.329880 185.144470,226.414368 185.144470,221.328003 
	C188.026657,221.096542 190.421402,220.904221 193.040726,220.693878 
	C192.914246,218.611450 192.817627,217.020538 192.706009,215.182739 
	C184.919571,215.182739 177.471680,215.182739 169.292984,215.724121 
M194.857742,236.757736 
	C197.145645,236.913483 199.433563,237.069229 201.693100,237.223038 
	C202.217514,239.240677 202.686798,241.046265 203.103683,242.650223 
	C205.369339,242.650223 207.460480,242.650223 209.538116,242.650223 
	C209.538116,238.301819 209.538116,234.270111 209.538116,230.350830 
	C204.180496,230.350830 199.260818,230.350830 194.240738,230.350830 
	C194.240738,232.508621 194.240738,234.315674 194.857742,236.757736 
M186.027328,203.187210 
	C186.860794,208.542603 190.289719,205.107391 192.682343,205.610931 
	C192.682343,200.908676 192.682343,196.666763 192.682343,192.425079 
	C190.332535,192.425079 188.308319,192.425079 186.006058,192.425079 
	C186.006058,195.980164 186.006058,199.118820 186.027328,203.187210 
M209.957626,196.394470 
	C209.843338,194.993561 209.729034,193.592667 209.632111,192.404541 
	C206.811676,192.404541 204.568726,192.404541 202.302292,192.404541 
	C202.302292,194.675400 202.302292,196.591873 202.302292,199.728271 
	C205.213226,198.795746 207.566864,198.041748 209.957626,196.394470 
M236.164108,192.847626 
	C235.369064,199.401138 235.822784,199.788956 242.595551,198.332733 
	C242.595551,196.308380 242.595551,194.284042 242.595551,192.218842 
	C240.402222,192.218842 238.607025,192.218842 236.164108,192.847626 
M169.258423,205.184814 
	C171.421997,205.487000 173.585556,205.789169 175.727066,206.088257 
	C176.578674,199.701599 176.341858,199.516495 169.090897,200.583847 
	C169.090897,201.776566 169.090897,203.047729 169.258423,205.184814 
M192.972656,240.483246 
	C192.093262,235.727951 188.733261,239.013397 186.329483,237.952560 
	C186.329483,239.848190 186.329483,241.194443 186.329483,243.699768 
	C188.920746,242.780167 190.930191,242.067047 192.972656,240.483246 
z"/>
<path fill="#389276" opacity="1.000000" stroke="none" 
	d="
M48.620178,193.909744 
	C48.711971,192.822571 48.803768,191.735397 49.081894,189.994598 
	C49.498436,188.214584 49.728645,187.088211 49.958855,185.961838 
	C52.952705,175.702896 60.411804,170.525833 70.784210,168.112122 
	C71.280533,168.124695 71.627373,168.113892 71.627373,168.113892 
	C71.627373,168.113892 71.973633,168.123718 71.973633,168.123718 
	C87.352051,168.076797 102.730476,168.029877 118.765121,168.118225 
	C119.936447,168.223145 120.451538,168.192795 120.966629,168.162445 
	C136.142181,170.536591 143.876007,182.608948 143.982269,196.232162 
	C144.079544,208.701584 143.883255,221.173767 144.031982,233.642181 
	C144.220947,249.483688 135.378876,262.899170 117.299461,263.540802 
	C102.386589,264.070068 87.418907,263.586700 72.493149,263.056122 
	C60.014004,262.612488 52.887798,255.007538 49.160583,242.980591 
	C49.411263,227.030518 49.556065,211.846222 49.618313,196.661575 
	C49.622070,195.745667 48.968102,194.827087 48.620178,193.909744 
M111.915062,250.046310 
	C120.951859,251.330688 130.801239,240.989166 130.178741,231.479782 
	C129.507233,221.221420 130.091156,210.884628 130.004868,200.583084 
	C129.924576,190.998825 121.907417,183.104828 112.370216,183.050049 
	C101.904984,182.989960 91.439705,182.935242 80.736504,182.883072 
	C80.499245,182.877991 80.261856,182.878113 79.231255,183.017136 
	C69.336945,183.917358 64.456558,190.096451 62.116833,199.477829 
	C62.089779,199.985825 62.062725,200.493820 62.226200,201.922195 
	C62.164249,212.285782 62.102299,222.649368 62.100998,233.230927 
	C62.149448,233.452148 62.181122,233.675369 62.686337,234.452789 
	C64.592873,244.673630 69.814507,249.194565 81.710495,250.523483 
	C91.502975,250.406982 101.295456,250.290482 111.915062,250.046310 
z"/>
<path fill="#389377" opacity="1.000000" stroke="none" 
	d="
M20.132288,112.027786 
	C20.076088,97.374863 19.079775,82.650078 20.192980,68.086540 
	C21.708874,48.254814 34.318886,31.382511 56.880241,27.740475 
	C57.360317,27.662977 57.806484,27.375404 58.776138,27.160563 
	C59.283806,27.135292 59.627060,27.123253 59.627060,27.123253 
	C59.627060,27.123253 59.969307,27.140944 59.969307,27.140944 
	C74.677963,27.087273 89.386620,27.033600 104.695496,27.199684 
	C105.481293,27.619205 105.678940,27.806229 105.888641,27.980513 
	C105.932037,29.711317 105.975433,31.442123 105.800018,33.734863 
	C105.382133,34.481693 105.195595,34.678482 105.021606,34.887169 
	C92.718430,34.940948 80.402046,34.655090 68.115341,35.132656 
	C51.986862,35.759548 39.158360,42.637367 32.118355,57.621185 
	C29.684097,62.802216 28.513491,68.930588 28.234627,74.697273 
	C27.648920,86.809273 28.036306,98.968338 27.957535,111.685822 
	C27.875099,112.483780 27.844767,112.701431 27.799841,112.916519 
	C25.450203,113.095703 23.100565,113.274887 20.494923,113.062332 
	C20.208813,112.455605 20.173269,112.241333 20.132288,112.027786 
z"/>
<path fill="#379376" opacity="1.000000" stroke="none" 
	d="
M105.896469,275.976837 
	C105.940010,277.707855 105.983543,279.438843 105.950485,281.714142 
	C105.833931,282.485260 105.819061,282.714600 105.829292,282.946411 
	C104.124146,283.262939 102.420883,283.841431 100.713554,283.853638 
	C89.262138,283.935608 77.807976,283.763763 66.358253,283.925781 
	C43.351536,284.251282 23.364889,268.432281 20.689856,246.114166 
	C20.632870,245.638718 20.344015,245.191055 20.150734,244.221573 
	C20.121529,243.485260 20.121031,243.258224 20.136644,243.031601 
	C20.087975,230.993729 20.039307,218.955872 20.305084,206.374237 
	C21.067980,205.596359 21.516428,205.362259 21.964874,205.128174 
	C23.377302,205.079636 24.789732,205.031113 26.756695,205.200073 
	C27.494682,205.605057 27.680769,205.789917 27.869482,205.972137 
	C27.920166,216.017151 27.970852,226.062149 27.959717,236.689209 
	C27.898434,237.503723 27.885221,237.735001 27.858259,237.965088 
	C29.358486,251.186401 35.220890,262.155457 46.756340,268.771942 
	C52.636227,272.144501 59.884312,274.179230 66.674065,274.689972 
	C79.086395,275.623688 91.617676,274.976013 104.701538,275.202454 
	C105.490440,275.615143 105.688019,275.801727 105.896469,275.976837 
z"/>
<path fill="#389377" opacity="1.000000" stroke="none" 
	d="
M197.961792,32.465950 
	C197.847092,31.277681 197.732376,30.089413 197.908737,28.366791 
	C198.459274,27.586208 198.718750,27.339977 198.978241,27.093748 
	C211.354385,27.057808 223.730530,27.021866 236.685059,27.063118 
	C237.483444,27.169170 237.703415,27.198366 237.923309,27.227903 
	C248.685593,28.823519 257.776306,33.544903 265.190216,41.563251 
	C270.922546,47.762932 274.060333,55.178860 275.833557,63.783714 
	C275.803619,64.520828 275.831207,64.749512 275.880402,64.976028 
	C275.918518,80.351707 275.956665,95.727386 275.914795,111.685928 
	C275.810577,112.500885 275.807129,112.733696 275.824463,112.967224 
	C273.400787,113.179260 270.977112,113.391296 268.367676,113.149338 
	C268.171539,112.471825 268.153412,112.248726 268.127502,112.026054 
	C268.068512,100.035995 267.657867,88.035011 268.029877,76.058342 
	C268.646423,56.209370 253.316879,37.280540 233.584106,35.911289 
	C232.299103,35.822124 231.043152,35.314217 229.248810,34.941650 
	C228.491852,34.891052 228.260681,34.883904 228.030411,34.860767 
	C218.654480,34.912014 209.278534,34.963261 199.256668,34.800179 
	C198.358154,34.396198 198.106506,34.205299 197.855789,34.013157 
	C197.855789,34.013157 197.942139,33.991863 197.928589,33.632030 
	C197.930618,33.003445 197.946213,32.734695 197.961792,32.465950 
z"/>
<path fill="#379376" opacity="1.000000" stroke="none" 
	d="
M198.987091,275.103302 
	C208.648788,275.053223 218.310410,274.973480 227.972153,274.958984 
	C250.604721,274.925079 267.943207,257.558075 267.949890,234.889526 
	C267.952637,225.558731 267.972839,216.227921 268.200073,206.295135 
	C268.608551,205.508453 268.794495,205.316483 268.972900,205.117203 
	C270.703827,205.068863 272.434784,205.020523 274.728638,205.189697 
	C275.478241,205.614426 275.680817,205.804779 275.899261,205.978241 
	C275.940643,218.686035 275.982056,231.393814 275.949829,244.683868 
	C275.856781,245.495880 275.845673,245.726257 275.842834,245.957245 
	C273.566406,265.142303 257.746643,281.443970 238.698151,282.908936 
	C225.346741,283.935760 211.882950,283.501465 198.401581,282.994507 
	C198.551559,279.880676 198.769333,277.491974 198.987091,275.103302 
z"/>
<path fill="#2E795F" opacity="1.000000" stroke="none" 
	d="
M48.504562,194.371552 
	C48.968102,194.827087 49.622070,195.745667 49.618313,196.661575 
	C49.556065,211.846222 49.411263,227.030518 49.167999,242.606598 
	C48.783798,237.724228 48.329556,232.451614 48.288391,227.175766 
	C48.204300,216.395889 48.342377,205.614273 48.504562,194.371552 
z"/>
<path fill="#32A882" opacity="1.000000" stroke="none" 
	d="
M253.887787,237.508743 
	C253.541763,232.698318 253.052490,227.426025 253.048508,222.153351 
	C253.041641,213.049225 253.336243,203.944901 253.633026,194.456543 
	C253.828781,208.397202 253.895859,222.721939 253.887787,237.508743 
z"/>
<path fill="#3EA183" opacity="1.000000" stroke="none" 
	d="
M198.635437,275.157074 
	C198.769333,277.491974 198.551559,279.880676 198.179016,282.625000 
	C198.110748,280.390686 198.197266,277.800781 198.635437,275.157074 
z"/>
<path fill="#2E795F" opacity="1.000000" stroke="none" 
	d="
M49.739216,186.246063 
	C49.728645,187.088211 49.498436,188.214584 49.157280,189.669662 
	C49.204079,188.842346 49.361828,187.686325 49.739216,186.246063 
z"/>
<path fill="#3CA483" opacity="1.000000" stroke="none" 
	d="
M121.375786,150.920074 
	C121.848373,150.616577 122.667923,150.362411 123.809479,150.073181 
	C123.328583,150.348541 122.525665,150.658966 121.375786,150.920074 
z"/>
<path fill="#3AA588" opacity="1.000000" stroke="none" 
	d="
M120.648819,168.099396 
	C120.451538,168.192795 119.936447,168.223145 119.231674,168.189606 
	C119.471664,168.095932 119.901337,168.066132 120.648819,168.099396 
z"/>
<path fill="#3CA483" opacity="1.000000" stroke="none" 
	d="
M70.362602,150.868942 
	C70.563431,150.765213 71.075523,150.748260 71.773285,150.802521 
	C71.530586,150.901062 71.102226,150.928391 70.362602,150.868942 
z"/>
<path fill="#3CA785" opacity="1.000000" stroke="none" 
	d="
M21.667431,205.087372 
	C21.516428,205.362259 21.067980,205.596359 20.378807,205.910004 
	C20.548717,205.675217 20.959351,205.360886 21.667431,205.087372 
z"/>
<path fill="#3DA384" opacity="1.000000" stroke="none" 
	d="
M105.905014,282.721802 
	C105.819061,282.714600 105.833931,282.485260 105.891159,282.143585 
	C105.908417,282.028748 105.980728,282.497223 105.905014,282.721802 
z"/>
<path fill="#3EA183" opacity="1.000000" stroke="none" 
	d="
M268.725800,205.119385 
	C268.794495,205.316483 268.608551,205.508453 268.267090,205.828369 
	C268.010651,205.585419 268.130524,205.304733 268.725800,205.119385 
z"/>
<path fill="#3DA384" opacity="1.000000" stroke="none" 
	d="
M105.895203,275.724487 
	C105.688019,275.801727 105.490440,275.615143 105.168770,275.264191 
	C105.320518,275.231598 105.607231,275.351868 105.895203,275.724487 
z"/>
<path fill="#3DA384" opacity="1.000000" stroke="none" 
	d="
M232.250244,263.888000 
	C232.248505,263.849823 232.461502,263.837921 232.777390,263.805817 
	C232.880447,263.791992 232.465164,263.920593 232.250244,263.888000 
z"/>
<path fill="#3CA785" opacity="1.000000" stroke="none" 
	d="
M27.865040,205.730927 
	C27.680769,205.789917 27.494682,205.605057 27.175068,205.275513 
	C27.408091,205.032455 27.681986,205.151215 27.865040,205.730927 
z"/>
<path fill="#3EA183" opacity="1.000000" stroke="none" 
	d="
M275.899841,245.728821 
	C275.845673,245.726257 275.856781,245.495880 275.881897,245.150421 
	C275.887573,245.034698 275.956879,245.500412 275.899841,245.728821 
z"/>
<path fill="#3EA183" opacity="1.000000" stroke="none" 
	d="
M275.904907,205.718460 
	C275.680817,205.804779 275.478241,205.614426 275.158478,205.246429 
	C275.320465,205.210007 275.615509,205.334351 275.904907,205.718460 
z"/>
<path fill="#3CA785" opacity="1.000000" stroke="none" 
	d="
M27.904266,237.734650 
	C27.885221,237.735001 27.898434,237.503723 27.887753,237.155548 
	C27.877613,237.039841 27.950272,237.504196 27.904266,237.734650 
z"/>
<path fill="#3CA785" opacity="1.000000" stroke="none" 
	d="
M59.740242,27.107529 
	C59.969307,27.140944 59.627060,27.123253 59.627060,27.123253 
	C59.627060,27.123253 59.283806,27.135292 59.171432,27.154528 
	C59.059055,27.173763 59.511181,27.074112 59.740242,27.107529 
z"/>
<path fill="#3CA785" opacity="1.000000" stroke="none" 
	d="
M20.101515,243.259521 
	C20.121031,243.258224 20.121529,243.485260 20.156162,243.824310 
	C20.174187,243.935928 20.066385,243.487457 20.101515,243.259521 
z"/>
<path fill="#3CA483" opacity="1.000000" stroke="none" 
	d="
M20.106609,112.251190 
	C20.173269,112.241333 20.208813,112.455605 20.254873,112.776443 
	C20.270828,112.882294 20.080931,112.474594 20.106609,112.251190 
z"/>
<path fill="#3CA785" opacity="1.000000" stroke="none" 
	d="
M197.847153,32.659042 
	C197.946213,32.734695 197.930618,33.003445 197.939209,33.675209 
	C197.858307,33.814182 197.729218,33.556351 197.658676,33.283394 
	C197.625397,33.154591 197.704391,32.996788 197.847153,32.659042 
z"/>
<path fill="#3CA785" opacity="1.000000" stroke="none" 
	d="
M105.274048,34.888718 
	C105.195595,34.678482 105.382133,34.481693 105.734955,34.163475 
	C105.767967,34.316860 105.647224,34.603565 105.274048,34.888718 
z"/>
<path fill="#3CA785" opacity="1.000000" stroke="none" 
	d="
M197.897583,34.293594 
	C198.106506,34.205299 198.358154,34.396198 198.789246,34.741089 
	C198.624969,34.788895 198.282166,34.681461 197.897583,34.293594 
z"/>
<path fill="#3CA785" opacity="1.000000" stroke="none" 
	d="
M228.261627,34.899460 
	C228.260681,34.883904 228.491852,34.891052 228.838989,34.867897 
	C228.954041,34.853584 228.492844,34.938148 228.261627,34.899460 
z"/>
<path fill="#3CA785" opacity="1.000000" stroke="none" 
	d="
M237.708389,27.149082 
	C237.703415,27.198366 237.483444,27.169170 237.151428,27.134613 
	C237.039413,27.128912 237.493469,27.070261 237.708389,27.149082 
z"/>
<path fill="#3CA785" opacity="1.000000" stroke="none" 
	d="
M198.656158,27.114319 
	C198.718750,27.339977 198.459274,27.586208 198.002777,28.017483 
	C197.981888,27.846649 198.157990,27.490772 198.656158,27.114319 
z"/>
<path fill="#3B9C81" opacity="1.000000" stroke="none" 
	d="
M275.908569,64.742096 
	C275.831207,64.749512 275.803619,64.520828 275.795654,64.174561 
	C275.793671,64.059143 275.936707,64.508156 275.908569,64.742096 
z"/>
<path fill="#3B9C81" opacity="1.000000" stroke="none" 
	d="
M252.918243,77.743095 
	C252.846878,77.746368 252.831192,77.513283 252.838104,77.162193 
	C252.840530,77.045113 252.953690,77.507660 252.918243,77.743095 
z"/>
<path fill="#3FA988" opacity="1.000000" stroke="none" 
	d="
M49.109039,78.268723 
	C49.108692,78.266541 49.084522,78.495522 49.106453,78.842926 
	C49.123623,78.957352 49.056290,78.495865 49.109039,78.268723 
z"/>
<path fill="#3FA988" opacity="1.000000" stroke="none" 
	d="
M143.904816,79.738014 
	C143.910095,79.740219 143.916046,79.511726 143.861252,79.170090 
	C143.833038,79.058823 143.938004,79.509193 143.904816,79.738014 
z"/>
<path fill="#3FA988" opacity="1.000000" stroke="none" 
	d="
M27.870010,112.702179 
	C27.844767,112.701431 27.875099,112.483780 27.885342,112.152191 
	C27.879845,112.040817 27.940180,112.487831 27.870010,112.702179 
z"/>
<path fill="#3EA183" opacity="1.000000" stroke="none" 
	d="
M268.094360,112.252716 
	C268.153412,112.248726 268.171539,112.471825 268.189636,112.806068 
	C268.197418,112.916794 268.061218,112.479370 268.094360,112.252716 
z"/>
<path fill="#3B9C81" opacity="1.000000" stroke="none" 
	d="
M275.880524,112.736389 
	C275.807129,112.733696 275.810577,112.500885 275.847717,112.152687 
	C275.860565,112.036575 275.936584,112.505547 275.880524,112.736389 
z"/>
<path fill="#3FA988" opacity="1.000000" stroke="none" 
	d="
M143.868103,127.725967 
	C143.890488,127.730576 143.919601,127.506531 143.880707,127.164688 
	C143.856064,127.053818 143.918228,127.504227 143.868103,127.725967 
z"/>
<path fill="#3FA988" opacity="1.000000" stroke="none" 
	d="
M49.088013,128.261292 
	C49.089630,128.259171 49.085873,128.488647 49.136520,128.831757 
	C49.162849,128.944000 49.054569,128.491516 49.088013,128.261292 
z"/>
<path fill="#3AA588" opacity="1.000000" stroke="none" 
	d="
M71.741623,168.088745 
	C71.973633,168.123718 71.627373,168.113892 71.627373,168.113892 
	C71.627373,168.113892 71.280533,168.124695 71.166321,168.141388 
	C71.052109,168.158066 71.509621,168.053787 71.741623,168.088745 
z"/>
<path fill="#3CA785" opacity="1.000000" stroke="none" 
	d="
M105.889343,27.727571 
	C105.678940,27.806229 105.481293,27.619205 105.161926,27.265116 
	C105.315445,27.232071 105.602737,27.353350 105.889343,27.727571 
z"/>
<path fill="#3FA585" opacity="1.000000" stroke="none" 
	d="
M179.741989,169.096954 
	C179.968124,169.133850 179.629181,169.116165 179.629181,169.116165 
	C179.629181,169.116165 179.289185,169.121704 179.178009,169.136658 
	C179.066833,169.151596 179.515854,169.060059 179.741989,169.096954 
z"/>
<path fill="#3FA585" opacity="1.000000" stroke="none" 
	d="
M232.725708,169.113510 
	C232.726212,169.132065 232.499939,169.116882 232.158630,169.127228 
	C232.045013,169.137543 232.500381,169.064529 232.725708,169.113510 
z"/>
<path fill="#000000" opacity="1.000000" stroke="none" 
	d="
M210.980209,214.896576 
	C212.062698,214.934021 213.145187,214.971466 214.990234,214.991089 
	C216.793411,214.651855 217.834030,214.330444 218.874664,214.009033 
	C218.874664,209.583939 218.874664,205.158844 218.874664,199.957947 
	C222.641449,199.957947 225.877884,199.957947 230.008789,199.958160 
	C233.868759,199.607529 234.318863,201.258957 234.475586,203.803650 
	C234.704987,207.528336 235.465714,211.220276 236.000000,214.926178 
	C238.128815,215.033829 240.257629,215.141479 242.586700,215.259262 
	C242.717407,216.249664 242.911224,217.044189 242.913406,217.839249 
	C242.935837,225.969284 242.927155,234.099411 242.927155,242.587143 
	C240.691223,242.587143 238.782639,242.587143 236.501434,242.587143 
	C236.099182,241.007523 235.628128,239.157700 235.135620,237.223618 
	C232.185593,237.223618 229.418015,237.223618 226.392502,237.223618 
	C226.154678,239.025589 225.943649,240.624420 225.684753,242.586044 
	C223.675034,242.586044 221.632477,242.586044 219.286758,242.586044 
	C219.286758,238.566208 219.286758,234.649765 219.286758,230.159332 
	C224.603622,230.159332 229.837433,230.159332 235.314240,230.159332 
	C235.538406,228.194809 235.685425,226.757858 235.869125,225.325577 
	C236.353821,221.546204 234.260452,220.945114 231.060883,220.991516 
	C221.548492,221.129471 212.032822,221.040985 202.479218,221.040985 
	C202.479218,216.217422 202.479218,211.806992 202.479218,207.212646 
	C204.734009,207.212646 207.010864,207.212646 210.001663,207.212646 
	C210.001663,209.283325 210.001663,211.213760 210.053024,213.840851 
	C210.396332,214.657211 210.688263,214.776901 210.980209,214.896576 
z"/>
<path fill="#000101" opacity="1.000000" stroke="none" 
	d="
M169.658386,215.453430 
	C177.471680,215.182739 184.919571,215.182739 192.706009,215.182739 
	C192.817627,217.020538 192.914246,218.611450 193.040726,220.693878 
	C190.421402,220.904221 188.026657,221.096542 185.144470,221.328003 
	C185.144470,226.414368 185.144470,231.329880 185.144470,236.665314 
	C182.255310,236.855164 179.840454,237.013840 176.984497,237.201492 
	C176.783127,238.949158 176.581070,240.702698 176.349854,242.709442 
	C174.220352,242.709442 171.966980,242.709442 169.354584,242.709442 
	C169.354584,238.647720 169.354584,234.601639 169.354584,230.269836 
	C172.104782,230.083221 174.687653,229.907959 177.198608,229.737564 
	C178.822357,221.934662 178.822357,221.934662 169.292984,220.493210 
	C169.292984,218.936218 169.292984,217.330170 169.658386,215.453430 
z"/>
<path fill="#000000" opacity="1.000000" stroke="none" 
	d="
M194.549240,236.440231 
	C194.240738,234.315674 194.240738,232.508621 194.240738,230.350830 
	C199.260818,230.350830 204.180496,230.350830 209.538116,230.350830 
	C209.538116,234.270111 209.538116,238.301819 209.538116,242.650223 
	C207.460480,242.650223 205.369339,242.650223 203.103683,242.650223 
	C202.686798,241.046265 202.217514,239.240677 201.693100,237.223038 
	C199.433563,237.069229 197.145645,236.913483 194.549240,236.440231 
z"/>
<path fill="#000000" opacity="1.000000" stroke="none" 
	d="
M186.016693,202.722351 
	C186.006058,199.118820 186.006058,195.980164 186.006058,192.425079 
	C188.308319,192.425079 190.332535,192.425079 192.682343,192.425079 
	C192.682343,196.666763 192.682343,200.908676 192.682343,205.610931 
	C190.289719,205.107391 186.860794,208.542603 186.016693,202.722351 
z"/>
<path fill="#000000" opacity="1.000000" stroke="none" 
	d="
M209.939056,196.841110 
	C207.566864,198.041748 205.213226,198.795746 202.302292,199.728271 
	C202.302292,196.591873 202.302292,194.675400 202.302292,192.404541 
	C204.568726,192.404541 206.811676,192.404541 209.632111,192.404541 
	C209.729034,193.592667 209.843338,194.993561 209.939056,196.841110 
z"/>
<path fill="#000000" opacity="1.000000" stroke="none" 
	d="
M236.487976,192.533234 
	C238.607025,192.218842 240.402222,192.218842 242.595551,192.218842 
	C242.595551,194.284042 242.595551,196.308380 242.592468,198.336121 
	C235.822784,199.788956 235.369064,199.401138 236.487976,192.533234 
z"/>
<path fill="#000000" opacity="1.000000" stroke="none" 
	d="
M169.174652,204.751846 
	C169.090897,203.047729 169.090897,201.776566 169.090897,200.583847 
	C176.341858,199.516495 176.578674,199.701599 175.727066,206.088257 
	C173.585556,205.789169 171.421997,205.487000 169.174652,204.751846 
z"/>
<path fill="#000000" opacity="1.000000" stroke="none" 
	d="
M192.956146,240.918579 
	C190.930191,242.067047 188.920746,242.780167 186.329483,243.699768 
	C186.329483,241.194443 186.329483,239.848190 186.329483,237.952560 
	C188.733261,239.013397 192.093262,235.727951 192.956146,240.918579 
z"/>
<path fill="#389377" opacity="1.000000" stroke="none" 
	d="
M236.000763,214.464935 
	C235.465714,211.220276 234.704987,207.528336 234.475586,203.803650 
	C234.318863,201.258957 233.868759,199.607529 230.466431,199.893890 
	C234.225586,198.289734 235.840057,200.301697 235.942459,204.214630 
	C236.027832,207.475937 235.986664,210.740540 236.000763,214.464935 
z"/>
<path fill="#3CA483" opacity="1.000000" stroke="none" 
	d="
M218.541992,214.021729 
	C217.834030,214.330444 216.793411,214.651855 215.391296,214.921112 
	C216.089645,214.590759 217.149490,214.312592 218.541992,214.021729 
z"/>
<path fill="#3CA483" opacity="1.000000" stroke="none" 
	d="
M210.846558,214.740723 
	C210.688263,214.776901 210.396332,214.657211 210.108826,214.281067 
	C210.327103,214.196442 210.526978,214.383194 210.846558,214.740723 
z"/>
<path fill="#000000" opacity="1.000000" stroke="none" 
	d="
M80.923080,250.242310 
	C69.814507,249.194565 64.592873,244.673630 62.429600,233.950668 
	C62.172863,233.448547 62.040348,233.012955 62.040348,233.012955 
	C62.102299,222.649368 62.164249,212.285782 62.208961,201.153778 
	C62.220387,199.963516 62.249054,199.541672 62.277721,199.119827 
	C64.456558,190.096451 69.336945,183.917358 79.865540,182.990311 
	C80.499817,182.963486 80.974449,182.878189 80.974449,182.878189 
	C91.439705,182.935242 101.904984,182.989960 112.370216,183.050049 
	C121.907417,183.104828 129.924576,190.998825 130.004868,200.583084 
	C130.091156,210.884628 129.507233,221.221420 130.178741,231.479782 
	C130.801239,240.989166 120.951859,251.330688 111.026352,250.045380 
	C100.399452,250.110397 90.661263,250.176361 80.923080,250.242310 
M114.997299,211.677521 
	C116.340530,202.024323 109.348671,197.264374 101.364319,198.013824 
	C97.739983,198.354019 94.056274,198.017365 90.401276,198.084656 
	C83.412048,198.213333 79.039078,202.617584 79.007416,209.508591 
	C78.985275,214.328064 78.975410,219.147919 79.009544,223.967239 
	C79.057930,230.798294 83.284561,234.957123 90.194618,234.991837 
	C94.847870,235.015213 99.501945,235.042953 104.154579,234.984238 
	C110.680779,234.901917 114.930733,230.613388 114.990723,224.097946 
	C115.025909,220.275848 114.997246,216.453171 114.997299,211.677521 
z"/>
<path fill="#2AAA55" opacity="1.000000" stroke="none" 
	d="
M81.316788,250.382904 
	C90.661263,250.176361 100.399452,250.110397 110.612785,250.109207 
	C101.295456,250.290482 91.502975,250.406982 81.316788,250.382904 
z"/>
<path fill="#3DA384" opacity="1.000000" stroke="none" 
	d="
M62.197277,199.298828 
	C62.249054,199.541672 62.220387,199.963516 62.113693,200.693588 
	C62.062725,200.493820 62.089779,199.985825 62.197277,199.298828 
z"/>
<path fill="#3DA384" opacity="1.000000" stroke="none" 
	d="
M62.070671,233.121948 
	C62.040348,233.012955 62.172863,233.448547 62.184441,233.674561 
	C62.181122,233.675369 62.149448,233.452148 62.070671,233.121948 
z"/>
<path fill="#3CA483" opacity="1.000000" stroke="none" 
	d="
M80.855476,182.880630 
	C80.974449,182.878189 80.499817,182.963486 80.262070,182.923462 
	C80.261856,182.878113 80.499245,182.877991 80.855476,182.880630 
z"/>
<path fill="#389276" opacity="1.000000" stroke="none" 
	d="
M114.997299,212.154144 
	C114.997246,216.453171 115.025909,220.275848 114.990723,224.097946 
	C114.930733,230.613388 110.680779,234.901917 104.154579,234.984238 
	C99.501945,235.042953 94.847870,235.015213 90.194618,234.991837 
	C83.284561,234.957123 79.057930,230.798294 79.009544,223.967239 
	C78.975410,219.147919 78.985275,214.328064 79.007416,209.508591 
	C79.039078,202.617584 83.412048,198.213333 90.401276,198.084656 
	C94.056274,198.017365 97.739983,198.354019 101.364319,198.013824 
	C109.348671,197.264374 116.340530,202.024323 114.997299,212.154144 
z"/>
</svg>